<svg width="650.9px" height="121.60000610351562px" xmlns="http://www.w3.org/2000/svg" viewBox="-75.44999999999999 14.199996948242188 650.9 121.60000610351562" style="background: rgba(0, 0, 0, 0);" preserveAspectRatio="xMidYMid"><defs><filter id="editing-raise" x="-100%" y="-100%" width="300%" height="300%"><feFlood flood-color="#ccc" result="flood-surface"></feFlood><feFlood flood-color="#777" result="flood-extrude"></feFlood><feMorphology operator="erode" in="SourceAlpha" radius="1" result="erode"></feMorphology><feConvolveMatrix in="erode" result="shadow" order="11,8" divisor="1" kernelMatrix="0 0 0 1 1 1 1 1 0 0 0 0 0 1 0 0 0 0 0 1 0 0 0 0 1 0 0 0 0 0 1 0 0 0 0 1 0 0 0 0 0 1 0 0 0 0 1 0 0 0 0 0 1 0 0 0 0 0 1 0 0 0 1 0 0 0 0 0 0 1 1 0 1 1 0 0 0 0 0 0 0 0 1 0 0 0 0 0"></feConvolveMatrix><feOffset dx="0" dy="4" in="shadow" result="offset"></feOffset><feGaussianBlur in="offset" stdDeviation="0.2" result="blur"></feGaussianBlur><feComposite operator="in" in="flood-extrude" in2="blur" result="extrude"></feComposite><feMorphology operator="erode" in="SourceAlpha" radius="1" result="erode2"></feMorphology><feConvolveMatrix in="erode2" result="out" order="4,4" divisor="1" kernelMatrix="0 1 1 0 1 0 0 1 1 0 0 1 0 1 1 0 "></feConvolveMatrix><feComposite operator="in" in="flood-surface" in2="out" result="text"></feComposite><feMerge><feMergeNode in="extrude"></feMergeNode><feMergeNode in="text"></feMergeNode></feMerge></filter></defs><g filter="url(#editing-raise)"><g transform="translate(20.481756329536438, 104.75999641418457)"><path d="M6.53 0L-0.83 0L10.75-42.24L24.13-42.24L27.07-18.11L38.98-42.24L50.18-42.24L51.33-10.62L51.33-10.62Q51.58-4.35 54.66-2.43L54.66-2.43L54.66-2.43Q53.95-1.15 51.90 0.06L51.90 0.06L51.90 0.06Q49.86 1.28 47.14 1.28L47.14 1.28L47.14 1.28Q44.42 1.28 42.82 0.51L42.82 0.51L42.82 0.51Q41.22-0.26 40.32-1.54L40.32-1.54L40.32-1.54Q38.72-3.84 38.72-8.26L38.72-8.26L38.72-28.03L26.11 0L18.18 0L13.70-28.74L6.53 0ZM60.19-1.92L60.19-1.92L60.19-1.92Q58.69-3.58 58.02-6.21L58.02-6.21L58.02-6.21Q57.34-8.83 57.34-13.12L57.34-13.12L57.34-13.12Q57.34-17.41 58.82-21.31L58.82-21.31L58.82-21.31Q60.29-25.22 62.98-28.03L62.98-28.03L62.98-28.03Q68.48-33.92 77.57-33.92L77.57-33.92L77.57-33.92Q80.83-33.92 83.20-32.83L83.20-32.83L94.14-33.92L89.41-8.96L89.41-8.96Q89.22-8.19 89.22-6.78L89.22-6.78L89.22-6.78Q89.22-5.38 90.08-4.48L90.08-4.48L90.08-4.48Q90.94-3.58 92.22-3.46L92.22-3.46L92.22-3.46Q91.58-1.28 89.25 0L89.25 0L89.25 0Q86.91 1.28 84.29 1.28L84.29 1.28L84.29 1.28Q81.66 1.28 79.90 0.29L79.90 0.29L79.90 0.29Q78.14-0.70 77.63-2.37L77.63-2.37L77.63-2.37Q76.61-0.77 74.43 0.26L74.43 0.26L74.43 0.26Q72.26 1.28 69.34 1.28L69.34 1.28L69.34 1.28Q66.43 1.28 64.06 0.51L64.06 0.51L64.06 0.51Q61.70-0.26 60.19-1.92ZM73.70-27.90L73.70-27.90L73.70-27.90Q72.96-26.75 72.32-24.80L72.32-24.80L72.32-24.80Q71.68-22.85 70.62-17.63L70.62-17.63L70.62-17.63Q69.57-12.42 69.57-8.70L69.57-8.70L69.57-8.70Q69.57-4.99 70.14-3.90L70.14-3.90L70.14-3.90Q70.72-2.82 71.74-2.82L71.74-2.82L71.74-2.82Q73.79-2.82 75.30-4.77L75.30-4.77L75.30-4.77Q76.80-6.72 77.38-10.18L77.38-10.18L80.77-28.93L80.77-28.93Q79.42-30.08 77.86-30.08L77.86-30.08L77.86-30.08Q76.29-30.08 75.36-29.57L75.36-29.57L75.36-29.57Q74.43-29.06 73.70-27.90ZM98.62-6.40L98.62-6.40L98.62-6.40Q98.62-8.13 99.52-12.48L99.52-12.48L102.91-29.76L99.14-29.76L99.39-31.68L99.39-31.68Q107.07-33.98 114.50-39.62L114.50-39.62L117.57-39.62L116.03-32.64L121.02-32.64L120.45-29.76L115.52-29.76L112.26-12.48L112.26-12.48Q111.42-8.51 111.42-7.17L111.42-7.17L111.42-7.17Q111.42-4.10 114.11-3.46L114.11-3.46L114.11-3.46Q113.47-1.28 111.17 0L111.17 0L111.17 0Q108.86 1.28 105.60 1.28L105.60 1.28L105.60 1.28Q102.34 1.28 100.48-0.77L100.48-0.77L100.48-0.77Q98.62-2.82 98.62-6.40ZM152.90-7.10L152.90-7.10L152.90-7.10Q152.90-4.29 155.78-3.46L155.78-3.46L155.78-3.46Q155.07-1.09 152.32 0.19L152.32 0.19L152.32 0.19Q150.02 1.28 147.49 1.28L147.49 1.28L147.49 1.28Q144.96 1.28 143.65 0.61L143.65 0.61L143.65 0.61Q142.34-0.06 141.63-1.15L141.63-1.15L141.63-1.15Q140.48-2.82 140.48-5.95L140.48-5.95L140.48-5.95Q140.48-7.81 141.50-12.93L141.50-12.93L142.40-17.79L142.40-17.79Q143.49-23.36 143.49-25.41L143.49-25.41L143.49-25.41Q143.49-28.99 141.50-28.99L141.50-28.99L141.50-28.99Q139.01-28.99 137.41-25.34L137.41-25.34L137.41-25.34Q136.77-23.94 136.32-21.82L136.32-21.82L131.97 0L119.10 1.28L128.13-44.80L140.99-46.08L140.48-43.52L140.48-43.52Q138.69-33.66 137.15-30.34L137.15-30.34L137.15-30.34Q140.74-33.92 147.33-33.92L147.33-33.92L147.33-33.92Q154.30-33.92 155.58-29.31L155.58-29.31L155.58-29.31Q156.03-27.84 156.03-26.56L156.03-26.56L156.03-26.56Q156.03-25.28 155.94-24.29L155.94-24.29L155.94-24.29Q155.84-23.30 155.52-21.50L155.52-21.50L154.69-16.90L153.22-9.66L153.22-9.66Q152.90-8.19 152.90-7.10ZM179.58 0L172.22 0L183.81-42.24L197.18-42.24L200.13-18.11L212.03-42.24L223.23-42.24L224.38-10.62L224.38-10.62Q224.64-4.35 227.71-2.43L227.71-2.43L227.71-2.43Q227.01-1.15 224.96 0.06L224.96 0.06L224.96 0.06Q222.91 1.28 220.19 1.28L220.19 1.28L220.19 1.28Q217.47 1.28 215.87 0.51L215.87 0.51L215.87 0.51Q214.27-0.26 213.38-1.54L213.38-1.54L213.38-1.54Q211.78-3.84 211.78-8.26L211.78-8.26L211.78-28.03L199.17 0L191.23 0L186.75-28.74L179.58 0ZM233.25-1.92L233.25-1.92L233.25-1.92Q231.74-3.58 231.07-6.21L231.07-6.21L231.07-6.21Q230.40-8.83 230.40-13.12L230.40-13.12L230.40-13.12Q230.40-17.41 231.87-21.31L231.87-21.31L231.87-21.31Q233.34-25.22 236.03-28.03L236.03-28.03L236.03-28.03Q241.54-33.92 250.62-33.92L250.62-33.92L250.62-33.92Q253.89-33.92 256.26-32.83L256.26-32.83L267.20-33.92L262.46-8.96L262.46-8.96Q262.27-8.19 262.27-6.78L262.27-6.78L262.27-6.78Q262.27-5.38 263.14-4.48L263.14-4.48L263.14-4.48Q264-3.58 265.28-3.46L265.28-3.46L265.28-3.46Q264.64-1.28 262.30 0L262.30 0L262.30 0Q259.97 1.28 257.34 1.28L257.34 1.28L257.34 1.28Q254.72 1.28 252.96 0.29L252.96 0.29L252.96 0.29Q251.20-0.70 250.69-2.37L250.69-2.37L250.69-2.37Q249.66-0.77 247.49 0.26L247.49 0.26L247.49 0.26Q245.31 1.28 242.40 1.28L242.40 1.28L242.40 1.28Q239.49 1.28 237.12 0.51L237.12 0.51L237.12 0.51Q234.75-0.26 233.25-1.92ZM246.75-27.90L246.75-27.90L246.75-27.90Q246.02-26.75 245.38-24.80L245.38-24.80L245.38-24.80Q244.74-22.85 243.68-17.63L243.68-17.63L243.68-17.63Q242.62-12.42 242.62-8.70L242.62-8.70L242.62-8.70Q242.62-4.99 243.20-3.90L243.20-3.90L243.20-3.90Q243.78-2.82 244.80-2.82L244.80-2.82L244.80-2.82Q246.85-2.82 248.35-4.77L248.35-4.77L248.35-4.77Q249.86-6.72 250.43-10.18L250.43-10.18L253.82-28.93L253.82-28.93Q252.48-30.08 250.91-30.08L250.91-30.08L250.91-30.08Q249.34-30.08 248.42-29.57L248.42-29.57L248.42-29.57Q247.49-29.06 246.75-27.90ZM274.94-26.75L274.94-26.75L274.94-26.75Q277.12-29.82 280.42-31.87L280.42-31.87L280.42-31.87Q283.71-33.92 287.74-33.92L287.74-33.92L287.74-33.92Q291.78-33.92 293.70-32.64L293.70-32.64L306.24-33.92L301.89-9.34L301.89-9.34Q299.65 3.20 294.91 8.13L294.91 8.13L294.91 8.13Q290.37 12.80 281.54 12.80L281.54 12.80L281.54 12.80Q274.82 12.80 270.98 10.69L270.98 10.69L270.98 10.69Q267.14 8.58 267.14 5.06L267.14 5.06L267.14 5.06Q267.14 2.43 269.12 0.93L269.12 0.93L269.12 0.93Q271.10-0.58 274.18-0.58L274.18-0.58L274.18-0.58Q276.86-0.58 278.91 0.64L278.91 0.64L278.91 0.64Q280.13 1.28 280.70 2.18L280.70 2.18L280.70 2.18Q279.23 3.46 279.23 5.57L279.23 5.57L279.23 5.57Q279.23 8.32 281.79 8.32L281.79 8.32L281.79 8.32Q286.08 8.32 288.51-1.79L288.51-1.79L288.51-1.79Q289.22-4.54 289.79-7.30L289.79-7.30L289.79-7.30Q286.91-3.78 280.38-3.78L280.38-3.78L280.38-3.78Q275.84-3.78 273.22-5.95L273.22-5.95L273.22-5.95Q270.59-8.13 270.59-13.25L270.59-13.25L270.59-13.25Q270.59-16.45 271.68-20.06L271.68-20.06L271.68-20.06Q272.77-23.68 274.94-26.75ZM283.26-13.06L283.26-13.06L283.26-13.06Q283.26-8.70 285.50-8.70L285.50-8.70L285.50-8.70Q287.04-8.70 288.51-10.37L288.51-10.37L288.51-10.37Q289.66-11.71 290.11-13.70L290.11-13.70L293.38-30.14L293.38-30.14Q293.06-30.21 292.74-30.34L292.74-30.34L292.74-30.34Q292.10-30.59 291.26-30.59L291.26-30.59L291.26-30.59Q287.36-30.59 285.06-24.19L285.06-24.19L285.06-24.19Q283.26-19.20 283.26-13.06ZM324.10-3.52L324.10-3.52L324.10-3.52Q322.11 1.28 315.78 1.28L315.78 1.28L315.78 1.28Q312.51 1.28 310.46-0.96L310.46-0.96L310.46-0.96Q308.74-2.94 308.74-4.93L308.74-4.93L308.74-4.93Q308.74-10.11 311.10-20.22L311.10-20.22L313.47-32.64L326.46-33.92L322.56-13.70L322.56-13.70Q321.47-8.96 321.47-7.30L321.47-7.30L321.47-7.30Q321.47-3.65 324.10-3.52ZM314.62-41.54L314.62-41.54L314.62-41.54Q314.62-44.03 316.70-45.38L316.70-45.38L316.70-45.38Q318.78-46.72 321.79-46.72L321.79-46.72L321.79-46.72Q324.80-46.72 326.62-45.38L326.62-45.38L326.62-45.38Q328.45-44.03 328.45-41.54L328.45-41.54L328.45-41.54Q328.45-39.04 326.43-37.76L326.43-37.76L326.43-37.76Q324.42-36.48 321.41-36.48L321.41-36.48L321.41-36.48Q318.40-36.48 316.51-37.76L316.51-37.76L316.51-37.76Q314.62-39.04 314.62-41.54ZM360.96-26.62L360.96-26.62L360.96-26.62Q360.96-23.94 358.72-22.27L358.72-22.27L358.72-22.27Q356.48-20.61 352.83-20.61L352.83-20.61L352.83-20.61Q351.30-20.61 350.40-21.06L350.40-21.06L350.40-21.06Q351.10-22.72 351.33-24.80L351.33-24.80L351.33-24.80Q351.55-26.88 351.55-27.46L351.55-27.46L351.55-27.46Q351.55-30.14 349.70-30.14L349.70-30.14L349.70-30.14Q348.42-30.14 346.98-28.54L346.98-28.54L346.98-28.54Q345.54-26.94 344.32-24.45L344.32-24.45L344.32-24.45Q341.63-18.69 341.63-12.86L341.63-12.86L341.63-12.86Q341.63-9.66 342.85-8.22L342.85-8.22L342.85-8.22Q344.06-6.78 346.75-6.78L346.75-6.78L346.75-6.78Q350.46-6.78 353.41-9.86L353.41-9.86L353.41-9.86Q354.24-10.82 354.69-11.90L354.69-11.90L354.69-11.90Q357.12-10.62 357.12-7.10L357.12-7.10L357.12-7.10Q357.12-3.52 353.15-1.15L353.15-1.15L353.15-1.15Q349.06 1.28 342.53 1.28L342.53 1.28L342.53 1.28Q329.54 1.28 329.54-12.48L329.54-12.48L329.54-12.48Q329.54-22.53 335.23-28.29L335.23-28.29L335.23-28.29Q340.74-33.92 350.85-33.92L350.85-33.92L350.85-33.92Q360.96-33.92 360.96-26.62ZM378.05-3.52L378.05-3.52L378.05-3.52Q376.06 1.28 369.73 1.28L369.73 1.28L369.73 1.28Q366.46 1.28 364.42-0.96L364.42-0.96L364.42-0.96Q362.69-2.94 362.69-4.93L362.69-4.93L362.69-4.93Q362.69-10.11 365.06-20.22L365.06-20.22L367.42-32.64L380.42-33.92L376.51-13.70L376.51-13.70Q375.42-8.96 375.42-7.30L375.42-7.30L375.42-7.30Q375.42-3.65 378.05-3.52ZM368.58-41.54L368.58-41.54L368.58-41.54Q368.58-44.03 370.66-45.38L370.66-45.38L370.66-45.38Q372.74-46.72 375.74-46.72L375.74-46.72L375.74-46.72Q378.75-46.72 380.58-45.38L380.58-45.38L380.58-45.38Q382.40-44.03 382.40-41.54L382.40-41.54L382.40-41.54Q382.40-39.04 380.38-37.76L380.38-37.76L380.38-37.76Q378.37-36.48 375.36-36.48L375.36-36.48L375.36-36.48Q372.35-36.48 370.46-37.76L370.46-37.76L370.46-37.76Q368.58-39.04 368.58-41.54ZM386.27-1.92L386.27-1.92L386.27-1.92Q384.77-3.58 384.10-6.21L384.10-6.21L384.10-6.21Q383.42-8.83 383.42-13.12L383.42-13.12L383.42-13.12Q383.42-17.41 384.90-21.31L384.90-21.31L384.90-21.31Q386.37-25.22 389.06-28.03L389.06-28.03L389.06-28.03Q394.56-33.92 403.65-33.92L403.65-33.92L403.65-33.92Q406.91-33.92 409.28-32.83L409.28-32.83L420.22-33.92L415.49-8.96L415.49-8.96Q415.30-8.19 415.30-6.78L415.30-6.78L415.30-6.78Q415.30-5.38 416.16-4.48L416.16-4.48L416.16-4.48Q417.02-3.58 418.30-3.46L418.30-3.46L418.30-3.46Q417.66-1.28 415.33 0L415.33 0L415.33 0Q412.99 1.28 410.37 1.28L410.37 1.28L410.37 1.28Q407.74 1.28 405.98 0.29L405.98 0.29L405.98 0.29Q404.22-0.70 403.71-2.37L403.71-2.37L403.71-2.37Q402.69-0.77 400.51 0.26L400.51 0.26L400.51 0.26Q398.34 1.28 395.42 1.28L395.42 1.28L395.42 1.28Q392.51 1.28 390.14 0.51L390.14 0.51L390.14 0.51Q387.78-0.26 386.27-1.92ZM399.78-27.90L399.78-27.90L399.78-27.90Q399.04-26.75 398.40-24.80L398.40-24.80L398.40-24.80Q397.76-22.85 396.70-17.63L396.70-17.63L396.70-17.63Q395.65-12.42 395.65-8.70L395.65-8.70L395.65-8.70Q395.65-4.99 396.22-3.90L396.22-3.90L396.22-3.90Q396.80-2.82 397.82-2.82L397.82-2.82L397.82-2.82Q399.87-2.82 401.38-4.77L401.38-4.77L401.38-4.77Q402.88-6.72 403.46-10.18L403.46-10.18L406.85-28.93L406.85-28.93Q405.50-30.08 403.94-30.08L403.94-30.08L403.94-30.08Q402.37-30.08 401.44-29.57L401.44-29.57L401.44-29.57Q400.51-29.06 399.78-27.90ZM450.75 1.28L450.75 1.28L450.75 1.28Q443.01 1.28 443.01-4.74L443.01-4.74L443.01-4.74Q443.07-6.40 443.58-9.22L443.58-9.22L444.74-15.10L444.74-15.10Q446.46-23.42 446.46-25.28L446.46-25.28L446.46-25.28Q446.46-28.99 444.29-28.99L444.29-28.99L444.29-28.99Q440.64-28.99 438.72-19.46L438.72-19.46L434.94 0L422.08 1.28L428.74-32.70L439.23-33.92L438.21-27.65L438.21-27.65Q441.22-33.92 450.43-33.92L450.43-33.92L450.43-33.92Q454.91-33.92 456.80-32.03L456.80-32.03L456.80-32.03Q458.69-30.14 458.69-25.92L458.69-25.92L458.69-25.92Q458.69-21.95 456.64-12.67L456.64-12.67L456.64-12.67Q455.68-8.51 455.68-6.94L455.68-6.94L455.68-6.94Q455.68-5.38 456.54-4.48L456.54-4.48L456.54-4.48Q457.41-3.58 458.69-3.46L458.69-3.46L458.69-3.46Q458.05-1.28 455.84 0L455.84 0L455.84 0Q453.63 1.28 450.75 1.28Z"></path></g></g><style>text {
  font-size: 64px;
  font-family: Arial Black;
  dominant-baseline: central;
  text-anchor: middle;
}</style></svg>